<svg width="25" height="24" viewBox="0 0 25 24" fill="none" xmlns="http://www.w3.org/2000/svg">
<g id="Icon / Dribble">
<path id="Vector" fill-rule="evenodd" clip-rule="evenodd" d="M12.6666 3C7.69808 3 3.66663 7.03145 3.66663 12C3.66663 16.9686 7.69808 21 12.6666 21C17.6254 21 21.6666 16.9686 21.6666 12C21.6666 7.03145 17.6254 3 12.6666 3ZM18.6113 7.14859C19.685 8.45662 20.3293 10.1258 20.3488 11.9317C20.095 11.8829 17.557 11.3655 14.9996 11.6876C14.941 11.5607 14.8922 11.4241 14.8336 11.2874C14.6774 10.9165 14.5018 10.5358 14.326 10.1746C17.1568 9.0228 18.4453 7.36334 18.6113 7.14859ZM12.6666 4.32755C14.6189 4.32755 16.4052 5.05966 17.7621 6.26031C17.6254 6.45553 16.4638 8.00759 13.7306 9.03253C12.4714 6.71909 11.0755 4.82538 10.8608 4.53254C11.4366 4.39588 12.0419 4.32755 12.6666 4.32755ZM9.39659 5.04989C9.60157 5.32321 10.9681 7.22668 12.2469 9.49131C8.6547 10.448 5.48225 10.4284 5.1406 10.4284C5.63843 8.04664 7.24906 6.06507 9.39659 5.04989ZM4.97466 12.0098C4.97466 11.9317 4.97466 11.8536 4.97466 11.7755C5.30654 11.7852 9.03539 11.8341 12.8716 10.6822C13.0961 11.1117 13.3011 11.551 13.4963 11.9902C13.3987 12.0195 13.2913 12.0488 13.1937 12.0781C9.23062 13.3568 7.12216 16.8514 6.94646 17.1442C5.72628 15.7874 4.97466 13.9816 4.97466 12.0098ZM12.6666 19.692C10.89 19.692 9.25015 19.0868 7.95188 18.0716C8.08854 17.7885 9.65034 14.782 13.9844 13.269C14.0039 13.2592 14.0137 13.2592 14.0332 13.2495C15.1167 16.051 15.556 18.4034 15.6731 19.077C14.7458 19.4772 13.7306 19.692 12.6666 19.692ZM16.9518 18.3742C16.8738 17.9056 16.4638 15.6605 15.4583 12.898C17.8694 12.5173 19.9779 13.1421 20.2415 13.23C19.9096 15.3677 18.6796 17.2126 16.9518 18.3742Z" fill="#F2F2F2"/>
</g>
</svg>
