<svg width="25" height="24" viewBox="0 0 25 24" fill="none" xmlns="http://www.w3.org/2000/svg">
<g id="Icon / LinkedIn">
<path id="Vector" fill-rule="evenodd" clip-rule="evenodd" d="M5.16663 3.24268C4.3382 3.24268 3.66663 3.91425 3.66663 4.74268V19.7427C3.66663 20.5711 4.3382 21.2427 5.16663 21.2427H20.1666C20.995 21.2427 21.6666 20.5711 21.6666 19.7427V4.74268C21.6666 3.91425 20.995 3.24268 20.1666 3.24268H5.16663ZM9.18739 7.2454C9.19302 8.20165 8.47724 8.79087 7.62786 8.78665C6.8277 8.78243 6.1302 8.1454 6.13442 7.24681C6.13864 6.40165 6.80661 5.72243 7.67427 5.74212C8.55458 5.76181 9.19302 6.40728 9.18739 7.2454ZM12.9463 10.0044H10.4263H10.4249V18.5643H13.0883V18.3646C13.0883 17.9847 13.088 17.6047 13.0877 17.2246C13.0869 16.2108 13.086 15.1959 13.0912 14.1824C13.0926 13.9363 13.1038 13.6804 13.1671 13.4455C13.4047 12.568 14.1937 12.0013 15.074 12.1406C15.6393 12.2291 16.0133 12.5568 16.1708 13.0898C16.2679 13.423 16.3115 13.7816 16.3157 14.129C16.3271 15.1766 16.3255 16.2242 16.3239 17.2719C16.3233 17.6417 16.3227 18.0117 16.3227 18.3815V18.5629H18.9946V18.3576C18.9946 17.9056 18.9944 17.4537 18.9941 17.0018C18.9936 15.8723 18.993 14.7428 18.996 13.6129C18.9974 13.1024 18.9426 12.599 18.8174 12.1054C18.6304 11.3713 18.2437 10.7638 17.6151 10.3251C17.1693 10.0129 16.6799 9.81178 16.1329 9.78928C16.0706 9.78669 16.0078 9.7833 15.9447 9.77989C15.665 9.76477 15.3807 9.74941 15.1133 9.80334C14.3483 9.95662 13.6762 10.3068 13.1685 10.9241C13.1095 10.9949 13.0518 11.0668 12.9657 11.1741L12.9463 11.1984V10.0044ZM6.34827 18.5671H8.99905V10.01H6.34827V18.5671Z" fill="#F2F2F2"/>
</g>
</svg>
